<svg width="9" height="15" viewBox="0 0 9 15" fill="none" xmlns="http://www.w3.org/2000/svg">
<path d="M8.38993 0.389926C8.26657 0.266321 8.12006 0.168257 7.95876 0.101349C7.79746 0.0344403 7.62455 0 7.44993 0C7.2753 0 7.10239 0.0344403 6.94109 0.101349C6.7798 0.168257 6.63328 0.266321 6.50993 0.389926L0.389926 6.50993C0.266321 6.63328 0.168257 6.7798 0.101349 6.94109C0.0344403 7.10239 0 7.2753 0 7.44993C0 7.62455 0.0344403 7.79746 0.101349 7.95876C0.168257 8.12006 0.266321 8.26657 0.389926 8.38993L6.50993 14.5099C6.63337 14.6334 6.77992 14.7313 6.9412 14.7981C7.10249 14.8649 7.27535 14.8993 7.44993 14.8993C7.6245 14.8993 7.79736 14.8649 7.95865 14.7981C8.11994 14.7313 8.26648 14.6334 8.38993 14.5099C8.51337 14.3865 8.61129 14.2399 8.6781 14.0787C8.7449 13.9174 8.77929 13.7445 8.77929 13.5699C8.77929 13.3954 8.7449 13.2225 8.6781 13.0612C8.61129 12.8999 8.51337 12.7534 8.38993 12.6299L3.21659 7.44326L8.38993 2.26993C8.89659 1.74993 8.89659 0.896592 8.38993 0.389926V0.389926Z" fill="#333333"/>
</svg>
