<svg width="40" height="40" viewBox="0 0 40 40" fill="none" xmlns="http://www.w3.org/2000/svg">
<path d="M40 37.98L33.3014 31.2829C35.0916 28.9788 35.9362 26.079 35.6634 23.174C35.3905 20.269 34.0207 17.5772 31.8328 15.6468C29.6449 13.7164 26.8035 12.6924 23.8871 12.7835C20.9707 12.8746 18.1987 14.0738 16.1356 16.137C14.0724 18.2002 12.8732 20.9722 12.7821 23.8885C12.691 26.8049 13.7149 29.6463 15.6454 31.8342C17.5758 34.0221 20.2676 35.392 23.1726 35.6648C26.0776 35.9377 28.9773 35.093 31.2814 33.3029L37.98 40L40 37.98ZM24.2857 32.8571C22.5904 32.8571 20.9332 32.3544 19.5237 31.4126C18.1141 30.4708 17.0155 29.1321 16.3667 27.5659C15.718 25.9996 15.5483 24.2762 15.879 22.6135C16.2097 20.9508 17.0261 19.4235 18.2248 18.2248C19.4235 17.0261 20.9508 16.2097 22.6135 15.879C24.2762 15.5483 25.9996 15.718 27.5659 16.3667C29.1321 17.0155 30.4708 18.1141 31.4126 19.5237C32.3544 20.9332 32.8571 22.5904 32.8571 24.2857C32.8545 26.5582 31.9506 28.7368 30.3437 30.3437C28.7368 31.9506 26.5582 32.8545 24.2857 32.8571V32.8571ZM0 14.2857H11.4286V17.1429H0V14.2857ZM0 0H22.8571V2.85714H0V0ZM0 7.14286H22.8571V10H0V7.14286Z" fill="#333333"/>
</svg>
