<svg width="33" height="33" viewBox="0 0 33 33" fill="none" xmlns="http://www.w3.org/2000/svg">
<g opacity="0.6">
<path d="M30.583 3.70605H4.47949C3.4116 3.70605 2.5459 4.57175 2.5459 5.63965V20.2061C2.5459 21.2739 3.4116 22.1396 4.47949 22.1396H30.583C31.6509 22.1396 32.5166 21.2739 32.5166 20.2061V5.63965C32.5166 4.57175 31.6509 3.70605 30.583 3.70605Z" fill="#1067AE"/>
<path d="M30.583 3.70605H28.6494C29.1622 3.70605 29.6541 3.90977 30.0167 4.27239C30.3793 4.63501 30.583 5.12683 30.583 5.63965V20.2061C30.583 20.7189 30.3793 21.2107 30.0167 21.5733C29.6541 21.9359 29.1622 22.1396 28.6494 22.1396H30.583C31.0958 22.1396 31.5876 21.9359 31.9503 21.5733C32.3129 21.2107 32.5166 20.7189 32.5166 20.2061V5.63965C32.5166 5.12683 32.3129 4.63501 31.9503 4.27239C31.5876 3.90977 31.0958 3.70605 30.583 3.70605Z" fill="#0A56A4"/>
<path d="M32.5166 7.05762H2.5459V11.1826H32.5166V7.05762Z" fill="#57565C"/>
<path d="M32.5166 7.05762H30.583V11.1826H32.5166V7.05762Z" fill="#3C3B41"/>
<path d="M28.5205 9.89355H2.41699C1.3491 9.89355 0.483398 10.7593 0.483398 11.8271V26.3936C0.483398 27.4614 1.3491 28.3271 2.41699 28.3271H28.5205C29.5884 28.3271 30.4541 27.4614 30.4541 26.3936V11.8271C30.4541 10.7593 29.5884 9.89355 28.5205 9.89355Z" fill="#227FC0"/>
<path d="M28.5205 9.89355H26.5869C27.0997 9.89355 27.5916 10.0973 27.9542 10.4599C28.3168 10.8225 28.5205 11.3143 28.5205 11.8271V26.3936C28.5205 26.9064 28.3168 27.3982 27.9542 27.7608C27.5916 28.1234 27.0997 28.3271 26.5869 28.3271H28.5205C29.0333 28.3271 29.5251 28.1234 29.8878 27.7608C30.2504 27.3982 30.4541 26.9064 30.4541 26.3936V11.8271C30.4541 11.3143 30.2504 10.8225 29.8878 10.4599C29.5251 10.0973 29.0333 9.89355 28.5205 9.89355Z" fill="#2370B5"/>
<path d="M26.7158 12.7939H19.5615C19.2056 12.7939 18.917 13.0825 18.917 13.4385V14.2119C18.917 14.5679 19.2056 14.8564 19.5615 14.8564H26.7158C27.0718 14.8564 27.3604 14.5679 27.3604 14.2119V13.4385C27.3604 13.0825 27.0718 12.7939 26.7158 12.7939Z" fill="white"/>
<path d="M26.7158 12.7939H24.7822C24.9532 12.7939 25.1171 12.8619 25.238 12.9827C25.3589 13.1036 25.4268 13.2675 25.4268 13.4385V14.2119C25.4268 14.3829 25.3589 14.5468 25.238 14.6677C25.1171 14.7885 24.9532 14.8564 24.7822 14.8564H26.7158C26.8868 14.8564 27.0507 14.7885 27.1716 14.6677C27.2924 14.5468 27.3604 14.3829 27.3604 14.2119V13.4385C27.3604 13.2675 27.2924 13.1036 27.1716 12.9827C27.0507 12.8619 26.8868 12.7939 26.7158 12.7939Z" fill="#E1E1E3"/>
<path d="M7.44434 12.7939H4.22168C3.86571 12.7939 3.57715 13.0825 3.57715 13.4385V15.4365C3.57715 15.7925 3.86571 16.0811 4.22168 16.0811H7.44434C7.8003 16.0811 8.08887 15.7925 8.08887 15.4365V13.4385C8.08887 13.0825 7.8003 12.7939 7.44434 12.7939Z" fill="#F8BE32"/>
<path d="M7.4445 12.7939H6.06714C6.23808 12.7939 6.40202 12.8619 6.52289 12.9827C6.64376 13.1036 6.71167 13.2675 6.71167 13.4385V15.4365C6.71167 15.6075 6.64376 15.7714 6.52289 15.8923C6.40202 16.0131 6.23808 16.0811 6.06714 16.0811H7.4445C7.61544 16.0811 7.77938 16.0131 7.90025 15.8923C8.02113 15.7714 8.08903 15.6075 8.08903 15.4365V13.4385C8.08903 13.2675 8.02113 13.1036 7.90025 12.9827C7.77938 12.8619 7.61544 12.7939 7.4445 12.7939Z" fill="#FED030"/>
<path d="M13.6693 23.9766H3.57788C3.44968 23.9766 3.32672 23.9256 3.23607 23.835C3.14541 23.7443 3.09448 23.6214 3.09448 23.4932C3.09448 23.365 3.14541 23.242 3.23607 23.1513C3.32672 23.0607 3.44968 23.0098 3.57788 23.0098H13.6693C13.7975 23.0098 13.9205 23.0607 14.0111 23.1513C14.1018 23.242 14.1527 23.365 14.1527 23.4932C14.1527 23.6214 14.1018 23.7443 14.0111 23.835C13.9205 23.9256 13.7975 23.9766 13.6693 23.9766ZM9.12021 25.9102H3.59979C3.47159 25.9102 3.34864 25.8592 3.25798 25.7686C3.16733 25.6779 3.1164 25.555 3.1164 25.4268C3.1164 25.2986 3.16733 25.1756 3.25798 25.0849C3.34864 24.9943 3.47159 24.9434 3.59979 24.9434H9.12021C9.24841 24.9434 9.37136 24.9943 9.46202 25.0849C9.55267 25.1756 9.6036 25.2986 9.6036 25.4268C9.6036 25.555 9.55267 25.6779 9.46202 25.7686C9.37136 25.8592 9.24841 25.9102 9.12021 25.9102Z" fill="white"/>
<path d="M25.9102 26.0068C26.7111 26.0068 27.3604 25.3576 27.3604 24.5566C27.3604 23.7557 26.7111 23.1064 25.9102 23.1064C25.1092 23.1064 24.46 23.7557 24.46 24.5566C24.46 25.3576 25.1092 26.0068 25.9102 26.0068Z" fill="#F9A242"/>
<path d="M25.9102 23.1064C25.7455 23.1065 25.582 23.1346 25.4268 23.1896C25.7094 23.2896 25.954 23.4748 26.127 23.7196C26.3001 23.9644 26.393 24.2569 26.393 24.5566C26.393 24.8564 26.3001 25.1488 26.127 25.3937C25.954 25.6385 25.7094 25.8236 25.4268 25.9237C25.6259 25.9942 25.838 26.0203 26.0483 26.0003C26.2586 25.9803 26.462 25.9145 26.6442 25.8077C26.8265 25.7008 26.9832 25.5554 27.1034 25.3817C27.2235 25.208 27.3043 25.0101 27.34 24.8019C27.3758 24.5937 27.3656 24.3802 27.3102 24.1763C27.2548 23.9725 27.1555 23.7832 27.0193 23.6217C26.8831 23.4602 26.7133 23.3304 26.5217 23.2414C26.3301 23.1524 26.1214 23.1064 25.9102 23.1064Z" fill="#F69531"/>
<path d="M23.9766 26.0068C24.7775 26.0068 25.4268 25.3576 25.4268 24.5566C25.4268 23.7557 24.7775 23.1064 23.9766 23.1064C23.1756 23.1064 22.5264 23.7557 22.5264 24.5566C22.5264 25.3576 23.1756 26.0068 23.9766 26.0068Z" fill="#F8BE32"/>
<path d="M23.9766 23.1064C23.8119 23.1065 23.6484 23.1346 23.4932 23.1896C23.7758 23.2896 24.0204 23.4748 24.1934 23.7196C24.3665 23.9644 24.4594 24.2569 24.4594 24.5566C24.4594 24.8564 24.3665 25.1488 24.1934 25.3937C24.0204 25.6385 23.7758 25.8236 23.4932 25.9237C23.6923 25.9942 23.9044 26.0203 24.1147 26.0003C24.325 25.9803 24.5284 25.9145 24.7106 25.8077C24.8929 25.7008 25.0496 25.5554 25.1698 25.3817C25.2899 25.208 25.3707 25.0101 25.4065 24.8019C25.4422 24.5937 25.432 24.3802 25.3766 24.1763C25.3212 23.9725 25.2219 23.7832 25.0857 23.6217C24.9495 23.4602 24.7797 23.3304 24.5881 23.2414C24.3965 23.1524 24.1878 23.1064 23.9766 23.1064Z" fill="#FED030"/>
<path d="M7.78931 20.625H3.59985C3.47165 20.625 3.34869 20.5741 3.25804 20.4834C3.16738 20.3928 3.11646 20.2698 3.11646 20.1416C3.11646 20.0134 3.16738 19.8904 3.25804 19.7998C3.34869 19.7091 3.47165 19.6582 3.59985 19.6582H7.78931C7.91751 19.6582 8.04047 19.7091 8.13112 19.7998C8.22178 19.8904 8.27271 20.0134 8.27271 20.1416C8.27271 20.2698 8.22178 20.3928 8.13112 20.4834C8.04047 20.5741 7.91751 20.625 7.78931 20.625ZM14.3126 20.625H10.1232C9.99495 20.625 9.87199 20.5741 9.78134 20.4834C9.69069 20.3928 9.63976 20.2698 9.63976 20.1416C9.63976 20.0134 9.69069 19.8904 9.78134 19.7998C9.87199 19.7091 9.99495 19.6582 10.1232 19.6582H14.3126C14.4408 19.6582 14.5638 19.7091 14.6544 19.7998C14.7451 19.8904 14.796 20.0134 14.796 20.1416C14.796 20.2698 14.7451 20.3928 14.6544 20.4834C14.5638 20.5741 14.4408 20.625 14.3126 20.625ZM20.8366 20.625H16.6471C16.5189 20.625 16.3959 20.5741 16.3053 20.4834C16.2146 20.3928 16.1637 20.2698 16.1637 20.1416C16.1637 20.0134 16.2146 19.8904 16.3053 19.7998C16.3959 19.7091 16.5189 19.6582 16.6471 19.6582H20.8366C20.9648 19.6582 21.0877 19.7091 21.1784 19.7998C21.269 19.8904 21.32 20.0134 21.32 20.1416C21.32 20.2698 21.269 20.3928 21.1784 20.4834C21.0877 20.5741 20.9648 20.625 20.8366 20.625ZM27.3605 20.625H23.171C23.0428 20.625 22.9199 20.5741 22.8292 20.4834C22.7386 20.3928 22.6876 20.2698 22.6876 20.1416C22.6876 20.0134 22.7386 19.8904 22.8292 19.7998C22.9199 19.7091 23.0428 19.6582 23.171 19.6582H27.3605C27.4887 19.6582 27.6117 19.7091 27.7023 19.7998C27.793 19.8904 27.8439 20.0134 27.8439 20.1416C27.8439 20.2698 27.793 20.3928 27.7023 20.4834C27.6117 20.5741 27.4887 20.625 27.3605 20.625Z" fill="white"/>
</g>
</svg>
