<svg width="25" height="25" viewBox="0 0 25 25" fill="none" xmlns="http://www.w3.org/2000/svg">
<circle cx="12.5" cy="12.5" r="12.5" fill="#FF4242"/>
<path d="M11.4722 16.2222C11.6417 16.2222 11.8042 16.1548 11.924 16.035C12.0438 15.9152 12.1111 15.7527 12.1111 15.5833V11.7499C12.1111 11.5805 12.0438 11.418 11.924 11.2982C11.8042 11.1784 11.6417 11.111 11.4722 11.111C11.3028 11.111 11.1403 11.1784 11.0205 11.2982C10.9006 11.418 10.8333 11.5805 10.8333 11.7499V15.5833C10.8333 15.7527 10.9006 15.9152 11.0205 16.035C11.1403 16.1548 11.3028 16.2222 11.4722 16.2222ZM17.8611 8.55549H15.3056V7.91661C15.3056 7.40827 15.1036 6.92076 14.7442 6.56132C14.3847 6.20187 13.8972 5.99994 13.3889 5.99994H12.1111C11.6028 5.99994 11.1153 6.20187 10.7558 6.56132C10.3964 6.92076 10.1944 7.40827 10.1944 7.91661V8.55549H7.63889C7.46945 8.55549 7.30694 8.62281 7.18713 8.74262C7.06731 8.86244 7 9.02494 7 9.19438C7 9.36383 7.06731 9.52633 7.18713 9.64615C7.30694 9.76596 7.46945 9.83327 7.63889 9.83327H8.27778V16.861C8.27778 17.3694 8.47971 17.8569 8.83916 18.2163C9.1986 18.5758 9.68611 18.7777 10.1944 18.7777H15.3056C15.8139 18.7777 16.3014 18.5758 16.6608 18.2163C17.0203 17.8569 17.2222 17.3694 17.2222 16.861V9.83327H17.8611C18.0306 9.83327 18.1931 9.76596 18.3129 9.64615C18.4327 9.52633 18.5 9.36383 18.5 9.19438C18.5 9.02494 18.4327 8.86244 18.3129 8.74262C18.1931 8.62281 18.0306 8.55549 17.8611 8.55549ZM11.4722 7.91661C11.4722 7.74716 11.5395 7.58466 11.6593 7.46484C11.7792 7.34503 11.9417 7.27772 12.1111 7.27772H13.3889C13.5583 7.27772 13.7208 7.34503 13.8407 7.46484C13.9605 7.58466 14.0278 7.74716 14.0278 7.91661V8.55549H11.4722V7.91661ZM15.9444 16.861C15.9444 17.0305 15.8771 17.193 15.7573 17.3128C15.6375 17.4326 15.475 17.4999 15.3056 17.4999H10.1944C10.025 17.4999 9.8625 17.4326 9.74268 17.3128C9.62287 17.193 9.55556 17.0305 9.55556 16.861V9.83327H15.9444V16.861ZM14.0278 16.2222C14.1972 16.2222 14.3597 16.1548 14.4795 16.035C14.5994 15.9152 14.6667 15.7527 14.6667 15.5833V11.7499C14.6667 11.5805 14.5994 11.418 14.4795 11.2982C14.3597 11.1784 14.1972 11.111 14.0278 11.111C13.8583 11.111 13.6958 11.1784 13.576 11.2982C13.4562 11.418 13.3889 11.5805 13.3889 11.7499V15.5833C13.3889 15.7527 13.4562 15.9152 13.576 16.035C13.6958 16.1548 13.8583 16.2222 14.0278 16.2222Z" fill="#F4F4F4"/>
</svg>
