<svg width="32" height="32" viewBox="0 0 32 32" fill="none" xmlns="http://www.w3.org/2000/svg">
<path d="M18.6667 4.66666H8V5.99999H18.6667V4.66666Z" fill="#03A9F4"/>
<path d="M26.4533 7.33332L20.8266 2.17332C20.7026 2.06064 20.5408 1.99875 20.3733 1.99999H5.99992C5.82311 1.99999 5.65354 2.07023 5.52851 2.19525C5.40349 2.32027 5.33325 2.48984 5.33325 2.66665V29.3333C5.33325 29.5101 5.40349 29.6797 5.52851 29.8047C5.65354 29.9297 5.82311 30 5.99992 30H25.9999C26.1767 30 26.3463 29.9297 26.4713 29.8047C26.5963 29.6797 26.6666 29.5101 26.6666 29.3333V7.83332C26.6681 7.73967 26.65 7.64674 26.6132 7.56059C26.5764 7.47444 26.5219 7.397 26.4533 7.33332Z" fill="#E0E0E0"/>
<path d="M18.6667 7.33334H8V8.66668H18.6667V7.33334Z" fill="#03A9F4"/>
<path d="M24 10H8V11.3333H24V10Z" fill="#03A9F4"/>
<path d="M24.0001 26H18.6667V27.3333H24.0001V26Z" fill="#03A9F4"/>
<path d="M23.3333 24H8.66667C8.48986 24 8.32029 23.9298 8.19526 23.8047C8.07024 23.6797 8 23.5101 8 23.3333V13.3333C8 13.1565 8.07024 12.9869 8.19526 12.8619C8.32029 12.7369 8.48986 12.6667 8.66667 12.6667H23.3333C23.5101 12.6667 23.6797 12.7369 23.8047 12.8619C23.9298 12.9869 24 13.1565 24 13.3333V23.3333C24 23.5101 23.9298 23.6797 23.8047 23.8047C23.6797 23.9298 23.5101 24 23.3333 24ZM9.33333 22.6667H22.6667V14H9.33333V22.6667Z" fill="#03A9F4"/>
<path d="M26.4733 7.52667L21.14 2.19333C21.0468 2.09932 20.9276 2.03519 20.7978 2.00915C20.668 1.9831 20.5333 1.99631 20.411 2.04709C20.2887 2.09787 20.1843 2.18391 20.1111 2.29426C20.0379 2.40461 19.9992 2.53425 20 2.66667V8C20 8.17681 20.0702 8.34638 20.1953 8.47141C20.3203 8.59643 20.4899 8.66667 20.6667 8.66667H26C26.1324 8.66744 26.2621 8.62876 26.3724 8.55556C26.4828 8.48236 26.5688 8.37795 26.6196 8.25566C26.6704 8.13336 26.6836 7.99871 26.6575 7.86888C26.6315 7.73905 26.5674 7.61992 26.4733 7.52667Z" fill="#9E9E9E"/>
<path d="M18.3267 19.4333C18.3267 17.5333 15.0733 18.1933 15.0733 17.24C15.0733 16.9133 15.3667 16.6467 16.1333 16.6467C16.6765 16.6536 17.2098 16.7932 17.6867 17.0533L18.0867 16.1467C17.6473 15.9092 17.1641 15.764 16.6667 15.72V14.6667H15.3333V15.7733C14.3 15.98 13.7867 16.5867 13.7867 17.3C13.7867 19.22 17.04 18.5533 17.04 19.52C17.04 19.84 16.7267 20.0733 15.96 20.0733C15.306 20.0701 14.6661 19.883 14.1133 19.5333L13.6733 20.4333C14.1754 20.747 14.7439 20.9387 15.3333 20.9933V22H16.6667V20.9733C17.78 20.7867 18.3267 20.1533 18.3267 19.4333Z" fill="#03A9F4"/>
</svg>
