<svg width="211" height="205" viewBox="0 0 211 205" fill="none" xmlns="http://www.w3.org/2000/svg">
<path d="M121.178 204.188H89.1298C39.9047 204.188 0 164.283 0 115.06V89.1298C0 39.9047 39.9047 0 89.1298 0H121.178C170.404 0 210.306 39.9047 210.306 89.1298V115.06C210.306 164.283 170.404 204.188 121.178 204.188Z" fill="#BBAACC"/>
<path d="M67.7133 62.4907C67.7133 62.4907 69.4789 83.8097 77.7849 89.826C88.8816 97.8625 109.827 65.2664 118.833 69.7527C132.211 76.4162 108.191 102.347 121.546 115.071C127.328 120.578 152.177 111.257 152.177 111.257C156.234 113.6 157.594 113.876 155.271 117.9L129.559 152.128C127.235 156.156 122.061 157.52 118.004 155.179L46.9205 114.621C42.863 112.28 41.4581 107.119 43.7819 103.094L58.1106 63.7491C60.4343 59.7234 63.6578 60.1479 67.7133 62.4907Z" fill="#FEFEFF"/>
<path d="M42.8142 105.649C42.8142 105.649 40.5986 118.178 48.9599 125.155C48.9599 125.155 78.4406 152.07 103.274 158.186C103.274 158.186 120.648 163.309 128.68 153.397" fill="#FEFEFF"/>
<path d="M63.7927 45.6351C69.2509 46.306 73.1369 51.2408 72.4705 56.6555C71.8069 62.0713 66.8434 65.9165 61.388 65.2466C55.9307 64.5776 52.0447 59.6429 52.7102 54.2262C53.3738 48.8104 58.3354 44.9661 63.7927 45.6351Z" fill="#FEFEFF"/>
<path d="M127.398 56.1327C132.347 58.9913 134.062 65.2898 131.227 70.2025C128.389 75.1131 122.078 76.779 117.127 73.9205C112.176 71.0641 110.464 64.7635 113.299 59.8528C116.134 54.9401 122.447 53.2742 127.398 56.1327Z" fill="#FEFEFF"/>
<path d="M166.577 101.383C171.653 104.312 173.408 110.769 170.501 115.805C167.592 120.839 161.125 122.549 156.051 119.619C150.975 116.69 149.218 110.232 152.123 105.199C155.033 100.163 161.503 98.4545 166.577 101.383Z" fill="#FEFEFF"/>
</svg>
