<svg width="32" height="32" viewBox="0 0 32 32" fill="none" xmlns="http://www.w3.org/2000/svg">
<g opacity="0.6" clip-path="url(#clip0_186_521)">
<path d="M29.5 8.5H2.5C1.39543 8.5 0.5 9.39543 0.5 10.5V24.5C0.5 25.6046 1.39543 26.5 2.5 26.5H29.5C30.6046 26.5 31.5 25.6046 31.5 24.5V10.5C31.5 9.39543 30.6046 8.5 29.5 8.5Z" fill="#55BB8C"/>
<path d="M16 23.5C19.3137 23.5 22 20.8137 22 17.5C22 14.1863 19.3137 11.5 16 11.5C12.6863 11.5 10 14.1863 10 17.5C10 20.8137 12.6863 23.5 16 23.5Z" fill="#FEDC55"/>
<path d="M31.5 10.5V12.73C30.9527 13.227 30.2394 13.5017 29.5 13.5C28.7044 13.5 27.9413 13.1839 27.3787 12.6213C26.8161 12.0587 26.5 11.2956 26.5 10.5C26.4983 9.76065 26.773 9.04734 27.27 8.5H29.5C30.0299 8.50158 30.5377 8.7128 30.9125 9.08753C31.2872 9.46227 31.4984 9.97005 31.5 10.5ZM31.5 22.27V24.5C31.4984 25.0299 31.2872 25.5377 30.9125 25.9125C30.5377 26.2872 30.0299 26.4984 29.5 26.5H27.27C26.773 25.9526 26.4984 25.2393 26.5 24.5C26.5 23.7044 26.8161 22.9413 27.3787 22.3787C27.9413 21.8161 28.7044 21.5 29.5 21.5C30.2394 21.4983 30.9527 21.773 31.5 22.27ZM5.5 10.5C5.5 11.2956 5.18393 12.0587 4.62132 12.6213C4.05871 13.1839 3.29565 13.5 2.5 13.5C1.76067 13.5016 1.0474 13.227 0.5 12.73V10.5C0.501583 9.97005 0.712805 9.46227 1.08753 9.08753C1.46227 8.7128 1.97005 8.50158 2.5 8.5H4.73C5.22705 9.04734 5.50167 9.76065 5.5 10.5ZM5.5 24.5C5.50157 25.2393 5.22697 25.9526 4.73 26.5H2.5C1.97005 26.4984 1.46227 26.2872 1.08753 25.9125C0.712805 25.5377 0.501583 25.0299 0.5 24.5V22.27C1.0474 21.773 1.76067 21.4984 2.5 21.5C3.29565 21.5 4.05871 21.8161 4.62132 22.3787C5.18393 22.9413 5.5 23.7044 5.5 24.5Z" fill="#9CD2B8"/>
<path d="M15.5 15H16.5C16.7652 15 17.0196 15.1054 17.2071 15.2929C17.3946 15.4804 17.5 15.7348 17.5 16C17.5 16.1326 17.5527 16.2598 17.6464 16.3536C17.7402 16.4473 17.8674 16.5 18 16.5C18.1326 16.5 18.2598 16.4473 18.3536 16.3536C18.4473 16.2598 18.5 16.1326 18.5 16C18.5 15.4696 18.2893 14.9609 17.9142 14.5858C17.5391 14.2107 17.0304 14 16.5 14V13.5C16.5 13.3674 16.4473 13.2402 16.3536 13.1464C16.2598 13.0527 16.1326 13 16 13C15.8674 13 15.7402 13.0527 15.6464 13.1464C15.5527 13.2402 15.5 13.3674 15.5 13.5V14C14.9696 14 14.4609 14.2107 14.0858 14.5858C13.7107 14.9609 13.5 15.4696 13.5 16C13.5 16.5304 13.7107 17.0391 14.0858 17.4142C14.4609 17.7893 14.9696 18 15.5 18H16.5C16.7652 18 17.0196 18.1054 17.2071 18.2929C17.3946 18.4804 17.5 18.7348 17.5 19C17.5 19.2652 17.3946 19.5196 17.2071 19.7071C17.0196 19.8946 16.7652 20 16.5 20H15.5C15.2348 20 14.9804 19.8946 14.7929 19.7071C14.6054 19.5196 14.5 19.2652 14.5 19C14.5 18.8674 14.4473 18.7402 14.3536 18.6464C14.2598 18.5527 14.1326 18.5 14 18.5C13.8674 18.5 13.7402 18.5527 13.6464 18.6464C13.5527 18.7402 13.5 18.8674 13.5 19C13.5 19.5304 13.7107 20.0391 14.0858 20.4142C14.4609 20.7893 14.9696 21 15.5 21V21.5C15.5 21.6326 15.5527 21.7598 15.6464 21.8536C15.7402 21.9473 15.8674 22 16 22C16.1326 22 16.2598 21.9473 16.3536 21.8536C16.4473 21.7598 16.5 21.6326 16.5 21.5V21C17.0304 21 17.5391 20.7893 17.9142 20.4142C18.2893 20.0391 18.5 19.5304 18.5 19C18.5 18.4696 18.2893 17.9609 17.9142 17.5858C17.5391 17.2107 17.0304 17 16.5 17H15.5C15.2348 17 14.9804 16.8946 14.7929 16.7071C14.6054 16.5196 14.5 16.2652 14.5 16C14.5 15.7348 14.6054 15.4804 14.7929 15.2929C14.9804 15.1054 15.2348 15 15.5 15ZM16 11C14.7144 11 13.4577 11.3812 12.3888 12.0954C11.3199 12.8097 10.4868 13.8248 9.99478 15.0126C9.50281 16.2003 9.37409 17.5072 9.6249 18.7681C9.8757 20.029 10.4948 21.1872 11.4038 22.0962C12.3128 23.0052 13.471 23.6243 14.7319 23.8751C15.9928 24.1259 17.2997 23.9972 18.4874 23.5052C19.6752 23.0132 20.6903 22.1801 21.4046 21.1112C22.1188 20.0423 22.5 18.7856 22.5 17.5C22.4979 15.7767 21.8124 14.1247 20.5939 12.9061C19.3753 11.6876 17.7233 11.0021 16 11ZM16 23C14.9122 23 13.8488 22.6774 12.9444 22.0731C12.0399 21.4687 11.3349 20.6098 10.9187 19.6048C10.5024 18.5998 10.3935 17.4939 10.6057 16.427C10.8179 15.3601 11.3417 14.3801 12.1109 13.6109C12.8801 12.8417 13.8601 12.3179 14.927 12.1057C15.9939 11.8935 17.0998 12.0024 18.1048 12.4187C19.1098 12.8349 19.9687 13.5399 20.5731 14.4444C21.1774 15.3488 21.5 16.4122 21.5 17.5C21.4984 18.9582 20.9184 20.3562 19.8873 21.3873C18.8562 22.4184 17.4582 22.9984 16 23ZM29.5 8H2.5C1.83696 8 1.20107 8.26339 0.732233 8.73223C0.263392 9.20107 0 9.83696 0 10.5L0 24.5C0 25.163 0.263392 25.7989 0.732233 26.2678C1.20107 26.7366 1.83696 27 2.5 27H29.5C30.163 27 30.7989 26.7366 31.2678 26.2678C31.7366 25.7989 32 25.163 32 24.5V10.5C32 9.83696 31.7366 9.20107 31.2678 8.73223C30.7989 8.26339 30.163 8 29.5 8ZM1 10.5C1 10.1022 1.15804 9.72064 1.43934 9.43934C1.72064 9.15804 2.10218 9 2.5 9H4.483C4.81587 9.4294 4.99761 9.9567 5 10.5C5 11.163 4.73661 11.7989 4.26777 12.2678C3.79893 12.7366 3.16304 13 2.5 13C1.9567 12.9976 1.4294 12.8159 1 12.483V10.5ZM4.483 26H2.5C2.10218 26 1.72064 25.842 1.43934 25.5607C1.15804 25.2794 1 24.8978 1 24.5V22.517C1.4294 22.1841 1.9567 22.0024 2.5 22C3.16304 22 3.79893 22.2634 4.26777 22.7322C4.73661 23.2011 5 23.837 5 24.5C4.99761 25.0433 4.81587 25.5706 4.483 26ZM31 24.5C31 24.8978 30.842 25.2794 30.5607 25.5607C30.2794 25.842 29.8978 26 29.5 26H27.517C27.1841 25.5706 27.0024 25.0433 27 24.5C27 23.837 27.2634 23.2011 27.7322 22.7322C28.2011 22.2634 28.837 22 29.5 22C30.0433 22.0024 30.5706 22.1841 31 22.517V24.5ZM31 21.355C30.533 21.1255 30.0203 21.0042 29.5 21C28.5717 21 27.6815 21.3687 27.0251 22.0251C26.3687 22.6815 26 23.5717 26 24.5C26.0042 25.0203 26.1255 25.533 26.355 26H5.645C5.87449 25.533 5.99583 25.0203 6 24.5C6 23.5717 5.63125 22.6815 4.97487 22.0251C4.3185 21.3687 3.42826 21 2.5 21C1.97968 21.0042 1.46699 21.1255 1 21.355V13.645C1.46699 13.8745 1.97968 13.9958 2.5 14C3.42826 14 4.3185 13.6313 4.97487 12.9749C5.63125 12.3185 6 11.4283 6 10.5C5.99583 9.97968 5.87449 9.46699 5.645 9H26.355C26.1255 9.46699 26.0042 9.97968 26 10.5C26 11.4283 26.3687 12.3185 27.0251 12.9749C27.6815 13.6313 28.5717 14 29.5 14C30.0203 13.9958 30.533 13.8745 31 13.645V21.355ZM31 12.483C30.5706 12.8159 30.0433 12.9976 29.5 13C28.837 13 28.2011 12.7366 27.7322 12.2678C27.2634 11.7989 27 11.163 27 10.5C27.0024 9.9567 27.1841 9.4294 27.517 9H29.5C29.8978 9 30.2794 9.15804 30.5607 9.43934C30.842 9.72064 31 10.1022 31 10.5V12.483Z" fill="black"/>
</g>
<defs>
<clipPath id="clip0_186_521">
<rect width="32" height="32" fill="white"/>
</clipPath>
</defs>
</svg>
