<svg width="9" height="15" viewBox="0 0 9 15" fill="none" xmlns="http://www.w3.org/2000/svg">
<path d="M0.389926 0.391683C0.266321 0.515035 0.168257 0.661553 0.101349 0.822851C0.0344403 0.984148 0 1.15706 0 1.33168C0 1.50631 0.0344403 1.67922 0.101349 1.84052C0.168257 2.00181 0.266321 2.14833 0.389926 2.27168L5.56326 7.44502L0.389926 12.6184C0.140622 12.8677 0.000564575 13.2058 0.000564575 13.5583C0.000564575 13.9109 0.140622 14.249 0.389926 14.4984C0.639229 14.7477 0.977357 14.8877 1.32993 14.8877C1.68249 14.8877 2.02062 14.7477 2.26993 14.4984L8.38993 8.37835C8.51353 8.255 8.61159 8.10848 8.6785 7.94718C8.74541 7.78588 8.77985 7.61297 8.77985 7.43835C8.77985 7.26373 8.74541 7.09082 8.6785 6.92952C8.61159 6.76822 8.51353 6.6217 8.38993 6.49835L2.26993 0.378349C1.76326 -0.128317 0.909926 -0.128317 0.389926 0.391683Z" fill="#333333"/>
</svg>
