<svg width="15" height="15" viewBox="0 0 15 15" fill="none" xmlns="http://www.w3.org/2000/svg">
<path d="M10.6628 9.38327H9.98892L9.75007 9.15296C10.586 8.18051 11.0893 6.91803 11.0893 5.54466C11.0893 2.4823 8.60702 0 5.54466 0C2.4823 0 0 2.4823 0 5.54466C0 8.60702 2.4823 11.0893 5.54466 11.0893C6.91803 11.0893 8.18051 10.586 9.15296 9.75007L9.38327 9.98892V10.6628L13.6484 14.9194L14.9194 13.6484L10.6628 9.38327ZM5.54466 9.38327C3.42063 9.38327 1.70605 7.66869 1.70605 5.54466C1.70605 3.42063 3.42063 1.70605 5.54466 1.70605C7.66869 1.70605 9.38327 3.42063 9.38327 5.54466C9.38327 7.66869 7.66869 9.38327 5.54466 9.38327Z" fill="#B0B0B0"/>
</svg>
